{"title":"The East (2013) BDRip (rus)","uid":8906079,"size":1561030656,"categoryP":"video","categoryS":"movies","magnet":"?xt=urn:btih:d95bd22d72651ca722839b83f9ef074fcb781eb5&amp;dn=The+East+%282013%29+BDRip+%28rus%29&amp;tr=udp%3A%2F%2Ftracker.openbittorrent.com%3A80&amp;tr=udp%3A%2F%2Fopen.demonii.com%3A1337&amp;tr=udp%3A%2F%2Ftracker.coppersurfer.tk%3A6969&amp;tr=udp%3A%2F%2Fexodus.desync.com%3A6969","seeders":1,"leechers":0,"uploader":"yfjfrj","files":1,"time":1378908423,"description":"General\nComplete name                            : C:UsersIvanDesktopVostok.2013.L.HDRip.1.45GB_sample.avi\nFormat                                   : AVI\nFormat/Info                              : Audio Video Interleave\nFile size                                : 27.2 MiB\nDuration                                 : 1mn 40s\nOverall bit rate                         : 2 278 Kbps\nWriting application                      : VirtualDubMod 1.5.10.2 (build 2542/release)\nWriting library                          : VirtualDubMod build 2542/release\n\nVideo\nID                                       : 0\nFormat                                   : MPEG-4 Visual\nFormat profile                           : Advanced Simple@L5\nFormat settings, BVOP                    : 1\nFormat settings, QPel                    : No\nFormat settings, GMC                     : No warppoints\nFormat settings, Matrix                  : Default (H.263)\nCodec ID                                 : XVID\nCodec ID/Hint                            : XviD\nDuration                                 : 1mn 40s\nBit rate                                 : 1 820 Kbps\nWidth                                    : 720 pixels\nHeight                                   : 304 pixels\nDisplay aspect ratio                     : 2.35:1\nFrame rate                               : 23.976 fps\nColor space                              : YUV\nChroma subsampling                       : 4:2:0\nBit depth                                : 8 bits\nScan type                                : Progressive\nCompression mode                         : Lossy\nBits/(Pixel*Frame)                       : 0.347\nStream size                              : 21.7 MiB (80%)\nWriting library                          : XviD 1.2.1 (UTC 2008-12-04)\n\nAudio\nID                                       : 1\nFormat                                   : AC-3\nFormat/Info                              : Audio Coding 3\nMode extension                           : CM (complete main)\nFormat settings, Endianness              : Big\nCodec ID                                 : 2000\nDuration                                 : 1mn 40s\nBit rate mode                            : Constant\nBit rate                                 : 448 Kbps\nChannel(s)                               : 6 channels\nChannel positions                        : Front: L C R, Side: L R, LFE\nSampling rate                            : 48.0 KHz\nBit depth                                : 16 bits\nCompression mode                         : Lossy\nDelay relative to video                  : 25ms\nStream size                              : 5.35 MiB (20%)\nAlignment                                : Split accross interleaves\nInterleave, duration                     : 42 ms (1.00 video frame)\nInterleave, preload duration             : 500 ms\n","torrent":{"xt":"urn:btih:d95bd22d72651ca722839b83f9ef074fcb781eb5","amp;dn":"The+East+%282013%29+BDRip+%28rus%29","amp;tr":["udp%3A%2F%2Ftracker.openbittorrent.com%3A80","udp%3A%2F%2Fopen.demonii.com%3A1337","udp%3A%2F%2Ftracker.coppersurfer.tk%3A6969","udp%3A%2F%2Fexodus.desync.com%3A6969"],"infoHash":"d95bd22d72651ca722839b83f9ef074fcb781eb5","infoHashBuffer":{"type":"Buffer","data":[217,91,210,45,114,101,28,167,34,131,155,131,249,239,7,79,203,120,30,181]},"announce":[],"urlList":[]}}